<?xml version="1.0" encoding="UTF-8" standalone="no"?>
<svg
   xmlns:dc="http://purl.org/dc/elements/1.1/"
   xmlns:cc="http://creativecommons.org/ns#"
   xmlns:rdf="http://www.w3.org/1999/02/22-rdf-syntax-ns#"
   xmlns:svg="http://www.w3.org/2000/svg"
   xmlns="http://www.w3.org/2000/svg"
   xmlns:sodipodi="http://sodipodi.sourceforge.net/DTD/sodipodi-0.dtd"
   xmlns:inkscape="http://www.inkscape.org/namespaces/inkscape"
   version="1.0"
   width="224.000000pt"
   height="225.000000pt"
   viewBox="0 0 224.000000 225.000000"
   preserveAspectRatio="xMidYMid meet"
   id="svg2"
   inkscape:version="0.92.0 r15299"
   sodipodi:docname="cross.svg">
  <sodipodi:namedview
     pagecolor="#ffffff"
     bordercolor="#666666"
     borderopacity="1"
     objecttolerance="10"
     gridtolerance="10"
     guidetolerance="10"
     inkscape:pageopacity="0"
     inkscape:pageshadow="2"
     inkscape:window-width="1440"
     inkscape:window-height="837"
     id="namedview10"
     showgrid="false"
     inkscape:zoom="0.83911111"
     inkscape:cx="-62.595339"
     inkscape:cy="140.625"
     inkscape:window-x="-8"
     inkscape:window-y="32"
     inkscape:window-maximized="1"
     inkscape:current-layer="svg2" />
  <defs
     id="defs12" />
  <metadata
     id="metadata4">
Created by potrace 1.13, written by Peter Selinger 2001-2015
<rdf:RDF>
  <cc:Work
     rdf:about="">
    <dc:format>image/svg+xml</dc:format>
    <dc:type
       rdf:resource="http://purl.org/dc/dcmitype/StillImage" />
  </cc:Work>
</rdf:RDF>
</metadata>
  <g
     id="g6"
     stroke="none"
     fill="#f2f2f2"
     transform="translate(0.000000,225.000000) scale(0.100000,-0.100000)"
     style="fill:#cccccc">
    <path
       id="path8"
       d="M207 2032 l-207 -207 345 -345 c190 -190 345 -349 345 -355 0 -5 -155 -165 -345 -355 l-345 -345 210 -210 210 -210 350 350 350 350 350 -350 350 -350 210 210 210 210 -345 345 c-190 190 -345 350 -345 355 0 5 155 165 345 355 l345 345 -210 210 -210 210 -350 -350 -350 -350 -348 348 c-191 191 -349 347 -352 347 -3 0 -99 -93 -213 -208z"
       style="fill:#FAFAFA" />
  </g>
</svg>
