<svg xmlns:dc="http://purl.org/dc/elements/1.1/" xmlns:cc="http://creativecommons.org/ns#" xmlns:rdf="http://www.w3.org/1999/02/22-rdf-syntax-ns#" xmlns:svg="http://www.w3.org/2000/svg" xmlns="http://www.w3.org/2000/svg" xmlns:sodipodi="http://sodipodi.sourceforge.net/DTD/sodipodi-0.dtd" xmlns:inkscape="http://www.inkscape.org/namespaces/inkscape" version="1.0" width="224" height="225" preserveAspectRatio="xMidYMid meet" inkscape:version="0.92.1 r15371" sodipodi:docname="forward.svg" style=""><rect id="backgroundrect" width="100%" height="100%" x="0" y="0" fill="none" stroke="none"/>
  <sodipodi:namedview pagecolor="#ffffff" bordercolor="#666666" borderopacity="1" objecttolerance="10" gridtolerance="10" guidetolerance="10" inkscape:pageopacity="0" inkscape:pageshadow="2" inkscape:window-width="1920" inkscape:window-height="1017" id="namedview10" showgrid="false" inkscape:zoom="1" inkscape:cx="73.58051" inkscape:cy="119.17253" inkscape:window-x="-8" inkscape:window-y="32" inkscape:window-maximized="1" inkscape:current-layer="svg2"/>
  <defs id="defs12"/>
  <metadata id="metadata4">
Created by potrace 1.13, written by Peter Selinger 2001-2015
<rdf:RDF>
  <cc:Work rdf:about="">
    <dc:format>image/svg+xml</dc:format>
    <dc:type rdf:resource="http://purl.org/dc/dcmitype/StillImage"/>
    <dc:title/>
  </cc:Work>
</rdf:RDF>
</metadata>
  
  
  
<g class="currentLayer" style=""><title>Layer 1</title><path style="opacity:1;fill:#cccccc;fill-opacity:1;stroke-width:0.95688289" d="M 34.66698,182.8301 104.97093,112.52615 34.66802,42.223227 76.6107,0.28053856 146.91362,70.583458 l 41.94269,41.942692 -41.94269,41.94268 -70.30395,70.30395 z" id="rect4486" inkscape:connector-curvature="0"/><path style="fill:#8b2323;fill-opacity:0" d="M 74.327193,271.67427 46.583058,243.91686 93.081784,197.4262 c 25.574296,-25.56987 46.498726,-46.94429 46.498726,-47.49873 0,-0.55444 -20.9244,-21.92884 -46.498667,-47.49867 L 46.583175,55.9382 73.825024,28.682835 C 88.808041,13.692384 101.52107,1.42747 102.07621,1.42747 c 0.55513,0 34.4207,33.413625 75.25682,74.2525 l 74.24748,74.2525 -74.75459,74.74961 -74.75459,74.7496 z" id="path4482" inkscape:connector-curvature="0" transform="scale(0.75) "/><path style="" d="M 74.327193,271.67427 46.583058,243.91686 93.081784,197.4262 c 25.574296,-25.56987 46.498726,-46.94429 46.498726,-47.49873 0,-0.55444 -20.9244,-21.92884 -46.498667,-47.49867 L 46.583175,55.9382 73.825024,28.682835 C 88.808041,13.692384 101.52107,1.42747 102.07621,1.42747 c 0.55513,0 34.4207,33.413625 75.25682,74.2525 l 74.24748,74.2525 -74.75459,74.74961 -74.75459,74.7496 z" id="path4484" inkscape:connector-curvature="0" transform="scale(0.75) " class="selected" fill="#FAFAFA" fill-opacity="1"/></g></svg>
